<?xml version="1.0" encoding="utf-8"?>
<!-- Generator: Adobe Illustrator 23.0.1, SVG Export Plug-In . SVG Version: 6.00 Build 0)  -->
<svg version="1.1" id="Layer_1" xmlns="http://www.w3.org/2000/svg" xmlns:xlink="http://www.w3.org/1999/xlink" x="0px" y="0px"
	 viewBox="0 0 512 512" style="enable-background:new 0 0 512 512;" xml:space="preserve">
<style type="text/css">
	.st0{fill-rule:evenodd;clip-rule:evenodd;fill:#1B1B1B;}
</style>
<path class="st0" d="M455.3,421.7c-0.2,3.5-3.1,6.2-6.7,6.2c-0.1,0-0.1,0-0.2,0c-3.6-0.1-6.5-3.1-6.4-6.6
	c0-5.1-2.5-123.3-200.6-125.5v85.8c0,2.6-0.3,5-2.7,6.1c-0.9,0.4-1.9,0.6-2.8,0.6c-1.5,0-3.1-0.5-4.3-1.6L58.4,241.2
	c-1.5-1.3-2.4-3.1-2.4-5c0-1.9,0.9-3.8,2.4-5L231.7,85.6c2-1.7,4.8-2,7.1-1c2.4,1.1,2.7,3,2.7,5.5v86.5
	c21.9,0.5,101.7,6.7,158.1,64.6C441.1,283.9,459.9,344.6,455.3,421.7z M389.9,250.5c-60.5-62.1-152.9-60.6-153.8-60.6
	c0,0-0.1,0-0.1,0c0,0,0,0-0.1,0c-0.5,0-1-0.2-1.5-0.3c-0.4-0.1-0.7-0.1-1.1-0.2c-2.8-1-5.3-3.6-5.3-6.4v-79.5L73,236.2l155.2,132.2
	v-79.5c0-3.6,4.1-6.4,7.8-6.4c82.2,0,143.2,19.2,181.2,57.1c10.9,10.9,18.7,22.1,24.3,32.7C437,321.9,419.7,281,389.9,250.5z"/>
</svg>
